<svg xmlns="http://www.w3.org/2000/svg" viewBox="0 0 480 200" width="480" height="200" fill="none" role="img" aria-label="Diffusion: noise resolves into a sample">
  <defs>
    <linearGradient id="g" x1="0" y1="0" x2="1" y2="1">
      <stop offset="0" stop-color="#8B5CFF"/>
      <stop offset="0.5" stop-color="#5C7CFF"/>
      <stop offset="1" stop-color="#22D3EE"/>
    </linearGradient>
    <linearGradient id="gh" x1="0" y1="0" x2="1" y2="0">
      <stop offset="0" stop-color="#8B5CFF"/>
      <stop offset="0.5" stop-color="#5C7CFF"/>
      <stop offset="1" stop-color="#22D3EE"/>
    </linearGradient>
  </defs>
  <style>
    .lbl{font:600 13px -apple-system,BlinkMacSystemFont,system-ui,sans-serif;fill:#86868b}
    .mono{font:600 12px ui-monospace,SFMono-Regular,Menlo,monospace;fill:#86868b}
    .cap{font:700 14px -apple-system,system-ui,sans-serif}
    .noise{animation:dN 5.5s ease-in-out infinite}
    .clean{opacity:0;animation:dC 5.5s ease-in-out infinite}
    .noiseLbl{animation:dN 5.5s ease-in-out infinite}
    .sampleLbl{opacity:0;animation:dC 5.5s ease-in-out infinite}
    .sweep{animation:dS 5.5s ease-in-out infinite}
    @keyframes dN{0%,12%{opacity:.95}48%,78%{opacity:0}96%,100%{opacity:.95}}
    @keyframes dC{0%,12%{opacity:0}48%,78%{opacity:1}96%,100%{opacity:0}}
    @keyframes dS{0%,8%{transform:translateX(40px)}48%{transform:translateX(440px)}
      62%{opacity:.9}78%,100%{transform:translateX(440px);opacity:0}}
    @media (prefers-reduced-motion: reduce){
      * { animation: none !important; }
      .ron { opacity: 1 !important; }
      .roff { opacity: .25 !important; }
    }
  </style>
  <text class="lbl roff noiseLbl" x="44" y="22">noise · t=T</text>
  <text class="lbl ron sampleLbl" x="372" y="22">sample · t=0</text>
  <g class="noise" fill="#86868b">
      <circle cx="169.5" cy="51.1" r="2.0" opacity="0.28"/>
      <circle cx="254.4" cy="81.2" r="1.1" opacity="0.48"/>
      <circle cx="55.0" cy="90.7" r="1.1" opacity="0.29"/>
      <circle cx="209.8" cy="145.8" r="1.2" opacity="0.35"/>
      <circle cx="291.0" cy="162.7" r="1.9" opacity="0.43"/>
      <circle cx="430.5" cy="36.5" r="2.4" opacity="0.38"/>
      <circle cx="97.7" cy="46.5" r="1.5" opacity="0.62"/>
      <circle cx="112.3" cy="111.4" r="2.0" opacity="0.42"/>
      <circle cx="259.1" cy="38.8" r="1.1" opacity="0.34"/>
      <circle cx="312.2" cy="89.9" r="1.5" opacity="0.51"/>
      <circle cx="221.3" cy="72.0" r="2.3" opacity="0.56"/>
      <circle cx="137.6" cy="110.4" r="1.8" opacity="0.64"/>
      <circle cx="331.8" cy="70.3" r="2.6" opacity="0.30"/>
      <circle cx="207.2" cy="136.0" r="1.2" opacity="0.47"/>
      <circle cx="55.7" cy="123.6" r="2.2" opacity="0.51"/>
      <circle cx="390.2" cy="73.9" r="2.1" opacity="0.52"/>
      <circle cx="272.0" cy="93.9" r="2.3" opacity="0.68"/>
      <circle cx="229.6" cy="123.0" r="1.1" opacity="0.57"/>
      <circle cx="298.9" cy="169.0" r="2.3" opacity="0.38"/>
      <circle cx="194.3" cy="123.6" r="1.0" opacity="0.46"/>
      <circle cx="107.2" cy="46.4" r="1.1" opacity="0.60"/>
      <circle cx="91.7" cy="64.7" r="1.6" opacity="0.64"/>
      <circle cx="72.2" cy="92.9" r="1.9" opacity="0.65"/>
      <circle cx="367.7" cy="151.0" r="1.4" opacity="0.44"/>
      <circle cx="183.5" cy="153.8" r="2.5" opacity="0.32"/>
      <circle cx="110.5" cy="62.5" r="1.4" opacity="0.47"/>
      <circle cx="275.6" cy="66.8" r="1.0" opacity="0.44"/>
      <circle cx="187.7" cy="109.3" r="2.5" opacity="0.56"/>
      <circle cx="246.2" cy="116.5" r="2.1" opacity="0.27"/>
      <circle cx="399.8" cy="139.2" r="2.4" opacity="0.61"/>
      <circle cx="197.0" cy="85.9" r="1.2" opacity="0.54"/>
      <circle cx="64.9" cy="39.4" r="1.3" opacity="0.32"/>
      <circle cx="176.0" cy="37.4" r="1.0" opacity="0.32"/>
      <circle cx="80.6" cy="80.9" r="1.0" opacity="0.64"/>
      <circle cx="285.6" cy="50.8" r="1.4" opacity="0.41"/>
      <circle cx="185.7" cy="47.2" r="2.4" opacity="0.70"/>
      <circle cx="226.4" cy="97.7" r="1.1" opacity="0.30"/>
      <circle cx="177.1" cy="67.1" r="2.3" opacity="0.32"/>
      <circle cx="49.2" cy="163.1" r="1.8" opacity="0.32"/>
      <circle cx="257.3" cy="33.8" r="1.8" opacity="0.69"/>
      <circle cx="385.3" cy="127.5" r="1.4" opacity="0.42"/>
      <circle cx="106.8" cy="138.1" r="1.9" opacity="0.60"/>
      <circle cx="171.9" cy="61.2" r="2.3" opacity="0.69"/>
      <circle cx="381.1" cy="142.9" r="2.3" opacity="0.58"/>
      <circle cx="130.7" cy="102.5" r="1.6" opacity="0.26"/>
      <circle cx="51.2" cy="69.1" r="1.4" opacity="0.56"/>
      <circle cx="422.6" cy="92.6" r="2.5" opacity="0.69"/>
      <circle cx="422.0" cy="81.0" r="1.4" opacity="0.35"/>
      <circle cx="118.7" cy="58.6" r="2.0" opacity="0.66"/>
      <circle cx="376.2" cy="97.1" r="2.0" opacity="0.61"/>
      <circle cx="73.9" cy="122.5" r="2.5" opacity="0.60"/>
      <circle cx="340.1" cy="96.9" r="1.3" opacity="0.61"/>
      <circle cx="173.0" cy="142.1" r="2.6" opacity="0.43"/>
      <circle cx="200.6" cy="162.6" r="2.2" opacity="0.33"/>
      <circle cx="90.8" cy="51.2" r="2.4" opacity="0.61"/>
      <circle cx="98.5" cy="145.7" r="2.6" opacity="0.55"/>
      <circle cx="180.2" cy="106.8" r="1.2" opacity="0.26"/>
      <circle cx="428.4" cy="121.0" r="1.8" opacity="0.67"/>
      <circle cx="213.5" cy="152.0" r="2.3" opacity="0.34"/>
      <circle cx="140.7" cy="71.0" r="1.4" opacity="0.51"/>
      <circle cx="143.7" cy="88.7" r="1.2" opacity="0.66"/>
      <circle cx="181.5" cy="94.1" r="1.9" opacity="0.66"/>
      <circle cx="208.3" cy="158.5" r="1.8" opacity="0.49"/>
      <circle cx="249.4" cy="32.6" r="1.7" opacity="0.33"/>
  </g>
  <g class="clean">
      <path d="M44 150 C 120 60, 240 90, 320 70 C 380 56, 410 60, 440 52"
            stroke="url(#gh)" stroke-width="5" stroke-linecap="round" fill="none"/>
      <circle cx="44" cy="150" r="6" fill="#8B5CFF"/>
      <circle cx="320" cy="70" r="4" fill="#5C7CFF"/>
      <circle cx="440" cy="52" r="5" fill="#22D3EE"/>
      <circle cx="392" cy="58" r="2.6" fill="#22D3EE" opacity="0.7"/>
      <circle cx="356" cy="62" r="2.0" fill="#22D3EE" opacity="0.55"/>
  </g>
  <rect class="sweep" x="0" y="26" width="3" height="150" fill="url(#gh)" opacity="0.9" rx="1.5"/>
</svg>
