<svg xmlns="http://www.w3.org/2000/svg" viewBox="0 0 320 140" width="320" height="140" fill="none" role="img" aria-label="audio waveform drawing itself">
  <defs>
    <linearGradient id="g" x1="0" y1="0" x2="1" y2="1">
      <stop offset="0" stop-color="#8B5CFF"/>
      <stop offset="0.5" stop-color="#5C7CFF"/>
      <stop offset="1" stop-color="#22D3EE"/>
    </linearGradient>
    <linearGradient id="gh" x1="0" y1="0" x2="1" y2="0">
      <stop offset="0" stop-color="#8B5CFF"/>
      <stop offset="0.5" stop-color="#5C7CFF"/>
      <stop offset="1" stop-color="#22D3EE"/>
    </linearGradient>
  </defs>
  <style>
    .lbl{font:600 13px -apple-system,BlinkMacSystemFont,system-ui,sans-serif;fill:#86868b}
    .mono{font:600 12px ui-monospace,SFMono-Regular,Menlo,monospace;fill:#86868b}
    .cap{font:700 14px -apple-system,system-ui,sans-serif}
    .wave{stroke-dasharray:900;stroke-dashoffset:900;animation:wd 3s ease-in-out infinite}
    @keyframes wd{0%{stroke-dashoffset:900}70%,100%{stroke-dashoffset:0}}
    .bars{animation:bp 3s ease-in-out infinite}
    @keyframes bp{0%,30%{opacity:.1}70%,100%{opacity:.35}}
    @media (prefers-reduced-motion: reduce){
      * { animation: none !important; }
      .ron { opacity: 1 !important; }
      .roff { opacity: .25 !important; }
    }
  </style>
  <g class="bars"><rect x="10.0" y="68.0" width="2" height="4.0" rx="1" fill="url(#gh)" opacity="0.25"/><rect x="17.5" y="66.0" width="2" height="8.1" rx="1" fill="url(#gh)" opacity="0.25"/><rect x="25.0" y="67.4" width="2" height="5.1" rx="1" fill="url(#gh)" opacity="0.25"/><rect x="32.5" y="62.1" width="2" height="15.9" rx="1" fill="url(#gh)" opacity="0.25"/><rect x="40.0" y="65.8" width="2" height="8.5" rx="1" fill="url(#gh)" opacity="0.25"/><rect x="47.5" y="58.7" width="2" height="22.7" rx="1" fill="url(#gh)" opacity="0.25"/><rect x="55.0" y="63.1" width="2" height="13.7" rx="1" fill="url(#gh)" opacity="0.25"/><rect x="62.5" y="56.0" width="2" height="27.9" rx="1" fill="url(#gh)" opacity="0.25"/><rect x="70.0" y="59.8" width="2" height="20.4" rx="1" fill="url(#gh)" opacity="0.25"/><rect x="77.5" y="54.4" width="2" height="31.1" rx="1" fill="url(#gh)" opacity="0.25"/><rect x="85.0" y="56.0" width="2" height="27.9" rx="1" fill="url(#gh)" opacity="0.25"/><rect x="92.5" y="53.9" width="2" height="32.1" rx="1" fill="url(#gh)" opacity="0.25"/><rect x="100.0" y="52.2" width="2" height="35.6" rx="1" fill="url(#gh)" opacity="0.25"/><rect x="107.5" y="54.6" width="2" height="30.8" rx="1" fill="url(#gh)" opacity="0.25"/><rect x="115.0" y="48.6" width="2" height="42.8" rx="1" fill="url(#gh)" opacity="0.25"/><rect x="122.5" y="56.3" width="2" height="27.4" rx="1" fill="url(#gh)" opacity="0.25"/><rect x="130.0" y="45.6" width="2" height="48.8" rx="1" fill="url(#gh)" opacity="0.25"/><rect x="137.5" y="58.9" width="2" height="22.2" rx="1" fill="url(#gh)" opacity="0.25"/><rect x="145.0" y="43.4" width="2" height="53.1" rx="1" fill="url(#gh)" opacity="0.25"/><rect x="152.5" y="62.2" width="2" height="15.6" rx="1" fill="url(#gh)" opacity="0.25"/><rect x="160.0" y="42.3" width="2" height="55.4" rx="1" fill="url(#gh)" opacity="0.25"/><rect x="167.5" y="65.8" width="2" height="8.4" rx="1" fill="url(#gh)" opacity="0.25"/><rect x="175.0" y="42.3" width="2" height="55.4" rx="1" fill="url(#gh)" opacity="0.25"/><rect x="182.5" y="66.5" width="2" height="6.9" rx="1" fill="url(#gh)" opacity="0.25"/><rect x="190.0" y="43.5" width="2" height="53.0" rx="1" fill="url(#gh)" opacity="0.25"/><rect x="197.5" y="63.2" width="2" height="13.5" rx="1" fill="url(#gh)" opacity="0.25"/><rect x="205.0" y="45.7" width="2" height="48.7" rx="1" fill="url(#gh)" opacity="0.25"/><rect x="212.5" y="60.6" width="2" height="18.8" rx="1" fill="url(#gh)" opacity="0.25"/><rect x="220.0" y="48.7" width="2" height="42.6" rx="1" fill="url(#gh)" opacity="0.25"/><rect x="227.5" y="58.8" width="2" height="22.3" rx="1" fill="url(#gh)" opacity="0.25"/><rect x="235.0" y="52.4" width="2" height="35.3" rx="1" fill="url(#gh)" opacity="0.25"/><rect x="242.5" y="58.1" width="2" height="23.7" rx="1" fill="url(#gh)" opacity="0.25"/><rect x="250.0" y="56.3" width="2" height="27.5" rx="1" fill="url(#gh)" opacity="0.25"/><rect x="257.5" y="58.6" width="2" height="22.8" rx="1" fill="url(#gh)" opacity="0.25"/><rect x="265.0" y="60.1" width="2" height="19.8" rx="1" fill="url(#gh)" opacity="0.25"/><rect x="272.5" y="60.2" width="2" height="19.7" rx="1" fill="url(#gh)" opacity="0.25"/><rect x="280.0" y="63.5" width="2" height="13.0" rx="1" fill="url(#gh)" opacity="0.25"/><rect x="287.5" y="62.7" width="2" height="14.5" rx="1" fill="url(#gh)" opacity="0.25"/><rect x="295.0" y="66.2" width="2" height="7.5" rx="1" fill="url(#gh)" opacity="0.25"/><rect x="302.5" y="66.1" width="2" height="7.8" rx="1" fill="url(#gh)" opacity="0.25"/><rect x="310.0" y="68.0" width="2" height="4.0" rx="1" fill="url(#gh)" opacity="0.25"/></g>
  <path class="wave" d="M10.0 70.0 L12.5 70.3 L15.0 71.1 L17.5 72.1 L20.0 72.3 L22.5 72.1 L25.0 70.3 L27.5 68.7 L30.0 65.7 L32.5 64.7 L35.0 63.4 L37.5 66.9 L40.0 68.2 L42.5 71.3 L45.0 75.1 L47.5 77.9 L50.0 75.7 L52.5 75.9 L55.0 73.4 L57.5 69.0 L60.0 63.3 L62.5 62.5 L65.0 56.3 L67.5 62.1 L70.0 62.9 L72.5 69.4 L75.0 73.7 L77.5 83.7 L80.0 81.2 L82.5 81.0 L85.0 82.8 L87.5 73.9 L90.0 66.1 L92.5 55.1 L95.0 53.9 L97.5 51.8 L100.0 59.8 L102.5 62.3 L105.0 73.0 L107.5 84.2 L110.0 91.0 L112.5 85.9 L115.0 84.2 L117.5 76.9 L120.0 69.9 L122.5 63.3 L125.0 55.6 L127.5 48.9 L130.0 57.9 L132.5 56.7 L135.0 67.6 L137.5 76.4 L140.0 89.0 L142.5 90.0 L145.0 87.4 L147.5 84.4 L150.0 76.4 L152.5 66.7 L155.0 51.7 L157.5 56.5 L160.0 45.8 L162.5 49.5 L165.0 64.2 L167.5 72.1 L170.0 80.5 L172.5 89.4 L175.0 84.0 L177.5 82.6 L180.0 78.6 L182.5 71.5 L185.0 63.1 L187.5 50.9 L190.0 44.5 L192.5 46.1 L195.0 58.7 L197.5 66.5 L200.0 75.8 L202.5 86.1 L205.0 83.3 L207.5 90.9 L210.0 86.2 L212.5 77.4 L215.0 68.1 L217.5 56.2 L220.0 58.7 L222.5 55.2 L225.0 55.4 L227.5 60.5 L230.0 70.2 L232.5 79.7 L235.0 83.0 L237.5 82.6 L240.0 81.1 L242.5 76.3 L245.0 71.2 L247.5 66.4 L250.0 59.3 L252.5 54.5 L255.0 61.6 L257.5 64.7 L260.0 66.4 L262.5 72.4 L265.0 76.0 L267.5 77.0 L270.0 79.0 L272.5 77.7 L275.0 72.9 L277.5 69.4 L280.0 67.4 L282.5 63.2 L285.0 66.3 L287.5 65.8 L290.0 67.2 L292.5 69.9 L295.0 71.7 L297.5 72.9 L300.0 72.4 L302.5 71.8 L305.0 70.5 L307.5 70.1 L310.0 70.0" stroke="url(#gh)" stroke-width="2.4" fill="none" stroke-linecap="round"/>
  <circle class="head" r="4" fill="#fff" stroke="url(#gh)" stroke-width="2">
    <animateMotion dur="3s" repeatCount="indefinite" path="M10.0 70.0 L12.5 70.3 L15.0 71.1 L17.5 72.1 L20.0 72.3 L22.5 72.1 L25.0 70.3 L27.5 68.7 L30.0 65.7 L32.5 64.7 L35.0 63.4 L37.5 66.9 L40.0 68.2 L42.5 71.3 L45.0 75.1 L47.5 77.9 L50.0 75.7 L52.5 75.9 L55.0 73.4 L57.5 69.0 L60.0 63.3 L62.5 62.5 L65.0 56.3 L67.5 62.1 L70.0 62.9 L72.5 69.4 L75.0 73.7 L77.5 83.7 L80.0 81.2 L82.5 81.0 L85.0 82.8 L87.5 73.9 L90.0 66.1 L92.5 55.1 L95.0 53.9 L97.5 51.8 L100.0 59.8 L102.5 62.3 L105.0 73.0 L107.5 84.2 L110.0 91.0 L112.5 85.9 L115.0 84.2 L117.5 76.9 L120.0 69.9 L122.5 63.3 L125.0 55.6 L127.5 48.9 L130.0 57.9 L132.5 56.7 L135.0 67.6 L137.5 76.4 L140.0 89.0 L142.5 90.0 L145.0 87.4 L147.5 84.4 L150.0 76.4 L152.5 66.7 L155.0 51.7 L157.5 56.5 L160.0 45.8 L162.5 49.5 L165.0 64.2 L167.5 72.1 L170.0 80.5 L172.5 89.4 L175.0 84.0 L177.5 82.6 L180.0 78.6 L182.5 71.5 L185.0 63.1 L187.5 50.9 L190.0 44.5 L192.5 46.1 L195.0 58.7 L197.5 66.5 L200.0 75.8 L202.5 86.1 L205.0 83.3 L207.5 90.9 L210.0 86.2 L212.5 77.4 L215.0 68.1 L217.5 56.2 L220.0 58.7 L222.5 55.2 L225.0 55.4 L227.5 60.5 L230.0 70.2 L232.5 79.7 L235.0 83.0 L237.5 82.6 L240.0 81.1 L242.5 76.3 L245.0 71.2 L247.5 66.4 L250.0 59.3 L252.5 54.5 L255.0 61.6 L257.5 64.7 L260.0 66.4 L262.5 72.4 L265.0 76.0 L267.5 77.0 L270.0 79.0 L272.5 77.7 L275.0 72.9 L277.5 69.4 L280.0 67.4 L282.5 63.2 L285.0 66.3 L287.5 65.8 L290.0 67.2 L292.5 69.9 L295.0 71.7 L297.5 72.9 L300.0 72.4 L302.5 71.8 L305.0 70.5 L307.5 70.1 L310.0 70.0"/>
  </circle>
  <text class="lbl" x="160.0" y="134" text-anchor="middle">.wav · sample rate from the model</text>
</svg>
