<svg xmlns="http://www.w3.org/2000/svg" viewBox="0 0 200 200" width="200" height="200" fill="none" role="img" aria-label="an image resolving from noise">
  <defs>
    <linearGradient id="g" x1="0" y1="0" x2="1" y2="1">
      <stop offset="0" stop-color="#8B5CFF"/>
      <stop offset="0.5" stop-color="#5C7CFF"/>
      <stop offset="1" stop-color="#22D3EE"/>
    </linearGradient>
    <linearGradient id="gh" x1="0" y1="0" x2="1" y2="0">
      <stop offset="0" stop-color="#8B5CFF"/>
      <stop offset="0.5" stop-color="#5C7CFF"/>
      <stop offset="1" stop-color="#22D3EE"/>
    </linearGradient>
  </defs>
  <style>
    .lbl{font:600 13px -apple-system,BlinkMacSystemFont,system-ui,sans-serif;fill:#86868b}
    .mono{font:600 12px ui-monospace,SFMono-Regular,Menlo,monospace;fill:#86868b}
    .cap{font:700 14px -apple-system,system-ui,sans-serif}
    .mn{animation:miN 4s ease-in-out infinite}
    .mc{opacity:0;animation:miC 4s ease-in-out infinite}
    @keyframes miN{0%,10%{opacity:1}55%,90%{opacity:0}100%{opacity:1}}
    @keyframes miC{0%,10%{opacity:0}55%,90%{opacity:1}100%{opacity:0}}
    @media (prefers-reduced-motion: reduce){
      * { animation: none !important; }
      .ron { opacity: 1 !important; }
      .roff { opacity: .25 !important; }
    }
  </style>
  <g class="mn"><rect x="20.0" y="20.0" width="16.0" height="16.0" fill="#86868b" opacity="0.35"/>
      <rect x="36.0" y="20.0" width="16.0" height="16.0" fill="#86868b" opacity="0.40"/>
      <rect x="52.0" y="20.0" width="16.0" height="16.0" fill="#86868b" opacity="0.57"/>
      <rect x="68.0" y="20.0" width="16.0" height="16.0" fill="#86868b" opacity="0.36"/>
      <rect x="84.0" y="20.0" width="16.0" height="16.0" fill="#86868b" opacity="0.38"/>
      <rect x="100.0" y="20.0" width="16.0" height="16.0" fill="#86868b" opacity="0.41"/>
      <rect x="116.0" y="20.0" width="16.0" height="16.0" fill="#86868b" opacity="0.23"/>
      <rect x="132.0" y="20.0" width="16.0" height="16.0" fill="#86868b" opacity="0.38"/>
      <rect x="148.0" y="20.0" width="16.0" height="16.0" fill="#86868b" opacity="0.43"/>
      <rect x="164.0" y="20.0" width="16.0" height="16.0" fill="#86868b" opacity="0.51"/>
      <rect x="20.0" y="36.0" width="16.0" height="16.0" fill="#86868b" opacity="0.19"/>
      <rect x="36.0" y="36.0" width="16.0" height="16.0" fill="#86868b" opacity="0.29"/>
      <rect x="52.0" y="36.0" width="16.0" height="16.0" fill="#86868b" opacity="0.19"/>
      <rect x="68.0" y="36.0" width="16.0" height="16.0" fill="#86868b" opacity="0.51"/>
      <rect x="84.0" y="36.0" width="16.0" height="16.0" fill="#86868b" opacity="0.46"/>
      <rect x="100.0" y="36.0" width="16.0" height="16.0" fill="#86868b" opacity="0.17"/>
      <rect x="116.0" y="36.0" width="16.0" height="16.0" fill="#86868b" opacity="0.59"/>
      <rect x="132.0" y="36.0" width="16.0" height="16.0" fill="#86868b" opacity="0.58"/>
      <rect x="148.0" y="36.0" width="16.0" height="16.0" fill="#86868b" opacity="0.44"/>
      <rect x="164.0" y="36.0" width="16.0" height="16.0" fill="#86868b" opacity="0.43"/>
      <rect x="20.0" y="52.0" width="16.0" height="16.0" fill="#86868b" opacity="0.22"/>
      <rect x="36.0" y="52.0" width="16.0" height="16.0" fill="#86868b" opacity="0.16"/>
      <rect x="52.0" y="52.0" width="16.0" height="16.0" fill="#86868b" opacity="0.39"/>
      <rect x="68.0" y="52.0" width="16.0" height="16.0" fill="#86868b" opacity="0.18"/>
      <rect x="84.0" y="52.0" width="16.0" height="16.0" fill="#86868b" opacity="0.24"/>
      <rect x="100.0" y="52.0" width="16.0" height="16.0" fill="#86868b" opacity="0.26"/>
      <rect x="116.0" y="52.0" width="16.0" height="16.0" fill="#86868b" opacity="0.16"/>
      <rect x="132.0" y="52.0" width="16.0" height="16.0" fill="#86868b" opacity="0.36"/>
      <rect x="148.0" y="52.0" width="16.0" height="16.0" fill="#86868b" opacity="0.35"/>
      <rect x="164.0" y="52.0" width="16.0" height="16.0" fill="#86868b" opacity="0.53"/>
      <rect x="20.0" y="68.0" width="16.0" height="16.0" fill="#86868b" opacity="0.38"/>
      <rect x="36.0" y="68.0" width="16.0" height="16.0" fill="#86868b" opacity="0.44"/>
      <rect x="52.0" y="68.0" width="16.0" height="16.0" fill="#86868b" opacity="0.37"/>
      <rect x="68.0" y="68.0" width="16.0" height="16.0" fill="#86868b" opacity="0.45"/>
      <rect x="84.0" y="68.0" width="16.0" height="16.0" fill="#86868b" opacity="0.36"/>
      <rect x="100.0" y="68.0" width="16.0" height="16.0" fill="#86868b" opacity="0.28"/>
      <rect x="116.0" y="68.0" width="16.0" height="16.0" fill="#86868b" opacity="0.60"/>
      <rect x="132.0" y="68.0" width="16.0" height="16.0" fill="#86868b" opacity="0.60"/>
      <rect x="148.0" y="68.0" width="16.0" height="16.0" fill="#86868b" opacity="0.53"/>
      <rect x="164.0" y="68.0" width="16.0" height="16.0" fill="#86868b" opacity="0.47"/>
      <rect x="20.0" y="84.0" width="16.0" height="16.0" fill="#86868b" opacity="0.29"/>
      <rect x="36.0" y="84.0" width="16.0" height="16.0" fill="#86868b" opacity="0.25"/>
      <rect x="52.0" y="84.0" width="16.0" height="16.0" fill="#86868b" opacity="0.28"/>
      <rect x="68.0" y="84.0" width="16.0" height="16.0" fill="#86868b" opacity="0.18"/>
      <rect x="84.0" y="84.0" width="16.0" height="16.0" fill="#86868b" opacity="0.49"/>
      <rect x="100.0" y="84.0" width="16.0" height="16.0" fill="#86868b" opacity="0.33"/>
      <rect x="116.0" y="84.0" width="16.0" height="16.0" fill="#86868b" opacity="0.53"/>
      <rect x="132.0" y="84.0" width="16.0" height="16.0" fill="#86868b" opacity="0.32"/>
      <rect x="148.0" y="84.0" width="16.0" height="16.0" fill="#86868b" opacity="0.58"/>
      <rect x="164.0" y="84.0" width="16.0" height="16.0" fill="#86868b" opacity="0.53"/>
      <rect x="20.0" y="100.0" width="16.0" height="16.0" fill="#86868b" opacity="0.15"/>
      <rect x="36.0" y="100.0" width="16.0" height="16.0" fill="#86868b" opacity="0.24"/>
      <rect x="52.0" y="100.0" width="16.0" height="16.0" fill="#86868b" opacity="0.56"/>
      <rect x="68.0" y="100.0" width="16.0" height="16.0" fill="#86868b" opacity="0.36"/>
      <rect x="84.0" y="100.0" width="16.0" height="16.0" fill="#86868b" opacity="0.59"/>
      <rect x="100.0" y="100.0" width="16.0" height="16.0" fill="#86868b" opacity="0.33"/>
      <rect x="116.0" y="100.0" width="16.0" height="16.0" fill="#86868b" opacity="0.18"/>
      <rect x="132.0" y="100.0" width="16.0" height="16.0" fill="#86868b" opacity="0.43"/>
      <rect x="148.0" y="100.0" width="16.0" height="16.0" fill="#86868b" opacity="0.50"/>
      <rect x="164.0" y="100.0" width="16.0" height="16.0" fill="#86868b" opacity="0.27"/>
      <rect x="20.0" y="116.0" width="16.0" height="16.0" fill="#86868b" opacity="0.19"/>
      <rect x="36.0" y="116.0" width="16.0" height="16.0" fill="#86868b" opacity="0.30"/>
      <rect x="52.0" y="116.0" width="16.0" height="16.0" fill="#86868b" opacity="0.58"/>
      <rect x="68.0" y="116.0" width="16.0" height="16.0" fill="#86868b" opacity="0.49"/>
      <rect x="84.0" y="116.0" width="16.0" height="16.0" fill="#86868b" opacity="0.20"/>
      <rect x="100.0" y="116.0" width="16.0" height="16.0" fill="#86868b" opacity="0.26"/>
      <rect x="116.0" y="116.0" width="16.0" height="16.0" fill="#86868b" opacity="0.20"/>
      <rect x="132.0" y="116.0" width="16.0" height="16.0" fill="#86868b" opacity="0.18"/>
      <rect x="148.0" y="116.0" width="16.0" height="16.0" fill="#86868b" opacity="0.51"/>
      <rect x="164.0" y="116.0" width="16.0" height="16.0" fill="#86868b" opacity="0.23"/>
      <rect x="20.0" y="132.0" width="16.0" height="16.0" fill="#86868b" opacity="0.40"/>
      <rect x="36.0" y="132.0" width="16.0" height="16.0" fill="#86868b" opacity="0.35"/>
      <rect x="52.0" y="132.0" width="16.0" height="16.0" fill="#86868b" opacity="0.24"/>
      <rect x="68.0" y="132.0" width="16.0" height="16.0" fill="#86868b" opacity="0.48"/>
      <rect x="84.0" y="132.0" width="16.0" height="16.0" fill="#86868b" opacity="0.21"/>
      <rect x="100.0" y="132.0" width="16.0" height="16.0" fill="#86868b" opacity="0.44"/>
      <rect x="116.0" y="132.0" width="16.0" height="16.0" fill="#86868b" opacity="0.20"/>
      <rect x="132.0" y="132.0" width="16.0" height="16.0" fill="#86868b" opacity="0.34"/>
      <rect x="148.0" y="132.0" width="16.0" height="16.0" fill="#86868b" opacity="0.25"/>
      <rect x="164.0" y="132.0" width="16.0" height="16.0" fill="#86868b" opacity="0.27"/>
      <rect x="20.0" y="148.0" width="16.0" height="16.0" fill="#86868b" opacity="0.59"/>
      <rect x="36.0" y="148.0" width="16.0" height="16.0" fill="#86868b" opacity="0.51"/>
      <rect x="52.0" y="148.0" width="16.0" height="16.0" fill="#86868b" opacity="0.29"/>
      <rect x="68.0" y="148.0" width="16.0" height="16.0" fill="#86868b" opacity="0.55"/>
      <rect x="84.0" y="148.0" width="16.0" height="16.0" fill="#86868b" opacity="0.24"/>
      <rect x="100.0" y="148.0" width="16.0" height="16.0" fill="#86868b" opacity="0.33"/>
      <rect x="116.0" y="148.0" width="16.0" height="16.0" fill="#86868b" opacity="0.53"/>
      <rect x="132.0" y="148.0" width="16.0" height="16.0" fill="#86868b" opacity="0.44"/>
      <rect x="148.0" y="148.0" width="16.0" height="16.0" fill="#86868b" opacity="0.20"/>
      <rect x="164.0" y="148.0" width="16.0" height="16.0" fill="#86868b" opacity="0.60"/>
      <rect x="20.0" y="164.0" width="16.0" height="16.0" fill="#86868b" opacity="0.25"/>
      <rect x="36.0" y="164.0" width="16.0" height="16.0" fill="#86868b" opacity="0.27"/>
      <rect x="52.0" y="164.0" width="16.0" height="16.0" fill="#86868b" opacity="0.50"/>
      <rect x="68.0" y="164.0" width="16.0" height="16.0" fill="#86868b" opacity="0.30"/>
      <rect x="84.0" y="164.0" width="16.0" height="16.0" fill="#86868b" opacity="0.28"/>
      <rect x="100.0" y="164.0" width="16.0" height="16.0" fill="#86868b" opacity="0.18"/>
      <rect x="116.0" y="164.0" width="16.0" height="16.0" fill="#86868b" opacity="0.19"/>
      <rect x="132.0" y="164.0" width="16.0" height="16.0" fill="#86868b" opacity="0.41"/>
      <rect x="148.0" y="164.0" width="16.0" height="16.0" fill="#86868b" opacity="0.26"/>
      <rect x="164.0" y="164.0" width="16.0" height="16.0" fill="#86868b" opacity="0.42"/></g>
  <rect class="mc" x="20" y="20" width="160" height="160" rx="10" fill="url(#g)"/>
  <circle class="mc" cx="70" cy="78" r="16" fill="#fff" opacity="0.85"/>
  <path class="mc" d="M40 150 L80 110 L110 140 L140 100 L160 150 Z" fill="#0b0b0d" opacity="0.35"/>
  <rect x="20" y="20" width="160" height="160" rx="10" fill="none" stroke="url(#gh)" stroke-width="1.5" opacity="0.5"/>
</svg>
