<svg xmlns="http://www.w3.org/2000/svg" viewBox="0 0 320 150" width="320" height="150" fill="none" role="img" aria-label="video frames exported to mp4">
  <defs>
    <linearGradient id="g" x1="0" y1="0" x2="1" y2="1">
      <stop offset="0" stop-color="#8B5CFF"/>
      <stop offset="0.5" stop-color="#5C7CFF"/>
      <stop offset="1" stop-color="#22D3EE"/>
    </linearGradient>
    <linearGradient id="gh" x1="0" y1="0" x2="1" y2="0">
      <stop offset="0" stop-color="#8B5CFF"/>
      <stop offset="0.5" stop-color="#5C7CFF"/>
      <stop offset="1" stop-color="#22D3EE"/>
    </linearGradient>
  </defs>
  <style>
    .lbl{font:600 13px -apple-system,BlinkMacSystemFont,system-ui,sans-serif;fill:#86868b}
    .mono{font:600 12px ui-monospace,SFMono-Regular,Menlo,monospace;fill:#86868b}
    .cap{font:700 14px -apple-system,system-ui,sans-serif}
    .strip{animation:vs 6s linear infinite}
    @keyframes vs{0%{transform:translateX(0)}100%{transform:translateX(-160px)}}
    .vscan{animation:vsc 2.4s ease-in-out infinite}
    @keyframes vsc{0%{transform:translateX(0)}100%{transform:translateX(300px)}}
    @media (prefers-reduced-motion: reduce){
      * { animation: none !important; }
      .ron { opacity: 1 !important; }
      .roff { opacity: .25 !important; }
    }
  </style>
<text class="lbl" x="160.0" y="142" text-anchor="middle">frames → .mp4</text>
  <g class="strip">
  <rect x="0" y="20" width="70" height="80" rx="6" fill="rgba(124,92,255,0.07)" stroke="#3a3a3e" stroke-width="1.2"/>
  <circle cx="12" cy="74" r="5" fill="url(#gh)" opacity="0.8"/>
  <rect x="7" y="24" width="6" height="5" rx="1" fill="#3a3a3e"/>
  <rect x="7" y="91" width="6" height="5" rx="1" fill="#3a3a3e"/>
  <rect x="57" y="24" width="6" height="5" rx="1" fill="#3a3a3e"/>
  <rect x="57" y="91" width="6" height="5" rx="1" fill="#3a3a3e"/>
  <rect x="80" y="20" width="70" height="80" rx="6" fill="rgba(124,92,255,0.07)" stroke="#3a3a3e" stroke-width="1.2"/>
  <circle cx="101" cy="67" r="5" fill="url(#gh)" opacity="0.8"/>
  <rect x="87" y="24" width="6" height="5" rx="1" fill="#3a3a3e"/>
  <rect x="87" y="91" width="6" height="5" rx="1" fill="#3a3a3e"/>
  <rect x="137" y="24" width="6" height="5" rx="1" fill="#3a3a3e"/>
  <rect x="137" y="91" width="6" height="5" rx="1" fill="#3a3a3e"/>
  <rect x="160" y="20" width="70" height="80" rx="6" fill="rgba(124,92,255,0.07)" stroke="#3a3a3e" stroke-width="1.2"/>
  <circle cx="190" cy="60" r="5" fill="url(#gh)" opacity="0.8"/>
  <rect x="167" y="24" width="6" height="5" rx="1" fill="#3a3a3e"/>
  <rect x="167" y="91" width="6" height="5" rx="1" fill="#3a3a3e"/>
  <rect x="217" y="24" width="6" height="5" rx="1" fill="#3a3a3e"/>
  <rect x="217" y="91" width="6" height="5" rx="1" fill="#3a3a3e"/>
  <rect x="240" y="20" width="70" height="80" rx="6" fill="rgba(124,92,255,0.07)" stroke="#3a3a3e" stroke-width="1.2"/>
  <circle cx="279" cy="53" r="5" fill="url(#gh)" opacity="0.8"/>
  <rect x="247" y="24" width="6" height="5" rx="1" fill="#3a3a3e"/>
  <rect x="247" y="91" width="6" height="5" rx="1" fill="#3a3a3e"/>
  <rect x="297" y="24" width="6" height="5" rx="1" fill="#3a3a3e"/>
  <rect x="297" y="91" width="6" height="5" rx="1" fill="#3a3a3e"/>
  <rect x="320" y="20" width="70" height="80" rx="6" fill="rgba(124,92,255,0.07)" stroke="#3a3a3e" stroke-width="1.2"/>
  <circle cx="368" cy="46" r="5" fill="url(#gh)" opacity="0.8"/>
  <rect x="327" y="24" width="6" height="5" rx="1" fill="#3a3a3e"/>
  <rect x="327" y="91" width="6" height="5" rx="1" fill="#3a3a3e"/>
  <rect x="377" y="24" width="6" height="5" rx="1" fill="#3a3a3e"/>
  <rect x="377" y="91" width="6" height="5" rx="1" fill="#3a3a3e"/>
  <rect x="400" y="20" width="70" height="80" rx="6" fill="rgba(124,92,255,0.07)" stroke="#3a3a3e" stroke-width="1.2"/>
  <circle cx="457" cy="39" r="5" fill="url(#gh)" opacity="0.8"/>
  <rect x="407" y="24" width="6" height="5" rx="1" fill="#3a3a3e"/>
  <rect x="407" y="91" width="6" height="5" rx="1" fill="#3a3a3e"/>
  <rect x="457" y="24" width="6" height="5" rx="1" fill="#3a3a3e"/>
  <rect x="457" y="91" width="6" height="5" rx="1" fill="#3a3a3e"/>
  </g>
  <rect class="vscan" x="0" y="20" width="26" height="80" fill="url(#gh)" opacity="0.18" rx="6"/>
</svg>
